<svg width="64" height="64" viewBox="0 0 64 64" fill="none" xmlns="http://www.w3.org/2000/svg">
<path d="M50.1063 23.5937L23.6703 47.9283L23.489 48.77L20.5754 50.7772L21.9998 52.1369L19.4099 52.3959L19.0984 53.6261L17.2732 52.7844L15.142 52.9786L15.525 50.583L13.9062 48.1873L15.3955 48.252V45.4679L16.8847 46.9571L18.1852 43.3959L50.1063 10.5859V23.5937ZM19.0984 43.9428L18.5034 44.1729L17.0789 47.9283L15.9135 46.9571V48.8995L15.0717 48.8348L16.1077 50.4535L15.784 52.3959L17.2732 52.2664L18.6976 52.9786L18.9566 52.0074L20.7696 51.7484L19.6689 50.7772L23.1005 48.4463L22.9063 47.7369L49.0703 23.1658V13.1364L19.0984 43.9428Z" fill="white"/>
<path d="M37.4326 18.0241L23.6846 31.1582L19.6702 33.7482L20.7061 35.3669L18.3752 35.4964L17.7925 36.7913L15.7205 35.4316H13.5191L14.1018 33.3597L13.1953 30.3165L14.4903 30.5108L15.2025 27.8561L15.9795 28.892L17.663 25.7194L37.4326 5V18.0241ZM15.3968 29.151L14.8788 31.1582L13.9075 31.0287L14.6198 33.3597L14.2313 34.8489H15.9148L17.5335 35.9496L17.9867 34.9136L19.7997 34.7841L18.9579 33.4892L22.6486 31.0935L36.3967 17.6002V7.5817L17.9867 26.5611L16.0442 30.1223L15.3968 29.151Z" fill="white"/>
<path d="M50.1059 41.925L34.2371 57.5758L33.0068 54.7269L35.2083 49.6765L31.0644 53.0434L28.0859 51.6837L50.1059 28.8574V41.925ZM29.1867 51.878L30.7582 52.4607L36.827 47.9283L33.5896 54.7269L34.436 56.3631L49.0699 41.5004V31.399L29.1867 51.878Z" fill="white"/>
<path fill-rule="evenodd" clip-rule="evenodd" d="M27.7031 51.4889L31.075 52.3498L34.3561 49.6138L37.1759 47.4746L35.6805 50.6717L33.762 54.6871L35.1185 57.807L31.3776 57.7364L28.5982 58.9998L28.9 55.3037L27.7031 51.4889ZM29.7861 55.2047L29.5916 57.587L31.196 56.8577L33.7727 56.9063L32.8003 54.6699L34.8909 50.2944L31.2932 53.3087L29.0082 52.7253L29.7861 55.2047Z" fill="white"/>
<path d="M18.6553 28.7152L23.41 26.0849L20.6216 30.6757L23.7942 31.1508L19.854 33.7395L20.9241 35.4542L18.4474 35.5708L17.8278 37.0045L15.7117 35.5174H13.354L13.9667 33.3586L13 30.1309L14.3916 30.3784L15.1061 27.4652L15.9846 28.7553L17.6897 25.4639L18.6553 28.7152ZM16.0756 30.2689L15.4454 29.3437L14.9728 31.2711L14.1064 31.1169L14.7759 33.3528L14.3821 34.7404H15.9574L17.4933 35.8198L17.9266 34.8176L19.5629 34.7404L18.793 33.5069L21.668 31.6181L19.351 31.2711L21.2288 28.1795L18.1856 29.8629L17.4933 27.532L16.0756 30.2689Z" fill="white"/>
<path d="M22.0066 47.687L25.0686 47.8494L20.7001 50.8148L22.5373 52.2365L19.4753 52.6021L19.1895 53.8207L17.189 52.9677L14.9435 53.13L15.3926 50.6523L13.7188 48.0526L15.2702 48.1338V45.2092L16.8216 46.7527L18.6996 41.9595L19.1895 44.8436L30.2944 36.5977L22.0066 47.687ZM18.6357 46.2226L18.4021 44.8482L17.113 48.1388L16.0472 47.0782V48.9525L15.1936 48.9079L16.2118 50.4893L15.8867 52.2828L17.3206 52.1791L18.6441 52.7433L18.8431 51.895L20.5614 51.6898L19.3773 50.7736L22.7222 48.503L20.5142 48.3859L26.4896 40.3905L18.6357 46.2226Z" fill="white"/>
</svg>
