<svg width="64" height="64" viewBox="0 0 64 64" fill="none" xmlns="http://www.w3.org/2000/svg">
<path d="M51.4815 23.2825L22.0044 52.8829L15.2227 53.7558L18.3785 43.8181L51.4815 9.79297V23.2825ZM19.3255 44.3853L16.7565 52.475L21.5025 51.8641L50.4071 22.8387V12.4379L19.3255 44.3853Z" fill="white"/>
<path d="M38.3366 17.5065L20.5937 35.5587L14.2148 34.9544L15.0206 28.3741L38.3366 4V17.5065ZM16.0435 28.8589L15.4153 33.989L20.186 34.441L37.2623 17.0669V6.67732L16.0435 28.8589Z" fill="white"/>
<path d="M51.4821 42.2918L35.5015 58.5222L30.667 56.6421L28.3281 52.4259L51.4821 28.7402V42.2918ZM29.6557 52.6045L31.418 55.7814L35.232 57.2646L50.4077 41.8514V31.376L29.6557 52.6045Z" fill="white"/>
<path d="M30.1247 56.1182L29.1836 53.196L31.9482 53.8835L36.3011 50.3311L33.7717 55.4879L34.9482 58.1236L31.8306 58.0663L29.8895 58.9258L30.1247 56.1182Z" fill="white"/>
<path fill-rule="evenodd" clip-rule="evenodd" d="M28.2461 52.2108L31.7429 53.1036L35.1454 50.2662L38.0696 48.0479L36.5189 51.3633L34.5293 55.5274L35.9361 58.7629L32.0567 58.6897L29.1743 59.9999L29.4872 56.167L28.2461 52.2108ZM30.4062 56.0643L30.2045 58.5348L31.8683 57.7785L34.5404 57.8289L33.532 55.5097L35.7 50.9721L31.9691 54.098L29.5995 53.493L30.4062 56.0643Z" fill="#365C8C"/>
<path d="M16.1905 30.2054L17.6608 27.3672L18.3786 29.7845L21.5345 28.0386L19.5873 31.2448L21.99 31.6046L19.0086 33.5634L19.8069 34.8426L18.11 34.9225L17.6608 35.9619L16.068 34.8426H14.4343L14.8427 33.4035L14.1484 31.0849L15.0469 31.2448L15.537 29.246L16.1905 30.2054Z" fill="white"/>
<path d="M18.8646 28.5934L23.7954 25.8657L20.9038 30.6266L24.1938 31.1193L20.1078 33.8038L21.2175 35.582L18.649 35.7029L18.0066 37.1897L15.8121 35.6476H13.3671L14.0025 33.4088L13 30.0616L14.4431 30.3182L15.1841 27.2972L16.0951 28.635L17.8634 25.2217L18.8646 28.5934ZM16.1894 30.2047L15.5359 29.2452L15.0459 31.244L14.1474 31.0841L14.8417 33.4028L14.4333 34.8418H16.0669L17.6597 35.9611L18.109 34.9218L19.8059 34.8418L19.0075 33.5626L21.9889 31.6038L19.5862 31.244L21.5334 28.0379L18.3776 29.7837L17.6597 27.3664L16.1894 30.2047Z" fill="#365C8C"/>
<path d="M15.355 45.698V48.731L13.7461 48.6468L15.482 51.3427L15.0162 53.9123L17.3449 53.7438L19.4194 54.6285L19.7158 53.3647L22.8912 52.9856L20.986 51.5112L25.5162 48.4361L22.3408 48.2676L30.9355 36.7676L19.4194 45.3189L18.9114 42.328L16.9638 47.2988L15.355 45.698Z" fill="white"/>
<path d="M22.3408 48.2677L25.5162 48.4361L20.9859 51.5113L22.8912 52.9856L19.7158 53.3648L19.4194 54.6285L17.3448 53.7439L15.0162 53.9123L15.4819 51.3428L13.7461 48.6468L15.355 48.731V45.698L16.9639 47.2988L18.9113 42.328L19.4194 45.3189L30.9355 36.7676L22.3408 48.2677ZM18.8451 46.749L18.6029 45.3237L17.266 48.7361L16.1607 47.6363V49.58L15.2755 49.5337L16.3315 51.1737L15.9943 53.0336L17.4814 52.9261L18.8538 53.5112L19.0602 52.6315L20.8421 52.4187L19.6142 51.4685L23.0829 49.1138L20.7931 48.9924L26.9898 40.7009L18.8451 46.749Z" fill="#365C8C"/>
</svg>
