<svg width="64" height="64" viewBox="0 0 64 64" fill="none" xmlns="http://www.w3.org/2000/svg">
<path d="M51.4822 23.2825L24.0671 48.5184L23.8791 49.3913L20.8575 51.4728L22.3347 52.8829L19.6489 53.1515L19.3259 54.4272L17.433 53.5543L15.223 53.7558L15.6201 51.2714L13.9414 48.787L15.4858 48.8541V45.9668L17.0302 47.5112L18.3789 43.8181L51.4822 9.79297V23.2825ZM19.3259 44.3853L18.7088 44.6239L17.2316 48.5184L16.023 47.5112V49.5256L15.15 49.4584L16.2244 51.1371L15.8887 53.1515L17.433 53.0172L18.9103 53.7558L19.1788 52.7486L21.059 52.48L19.9175 51.4728L23.4762 49.0556L23.2748 48.3199L50.4078 22.8387V12.4379L19.3259 44.3853Z" fill="black"/>
<path d="M38.3381 17.5065L24.0809 31.1271L19.9178 33.8129L20.9921 35.4916L18.5749 35.6258L17.9705 36.9688L15.8218 35.5587H13.5389L14.1432 33.41L13.2031 30.2542L14.5461 30.4556L15.2847 27.7026L16.0904 28.7769L17.8362 25.4868L38.3381 4V17.5065ZM15.4861 29.0455L14.9489 31.1271L13.9417 30.9928L14.6804 33.41L14.2775 34.9544H16.0233L17.702 36.0959L18.172 35.0215L20.0521 34.8872L19.1792 33.5443L23.0065 31.0599L37.2638 17.0669V6.67732L18.172 26.3597L16.1576 30.0527L15.4861 29.0455Z" fill="black"/>
<path d="M51.48 42.2918L35.0235 58.5223L33.7477 55.5678L36.0307 50.3304L31.7333 53.822L28.6445 52.412L51.48 28.7402V42.2918ZM29.786 52.6134L31.4158 53.2177L37.7093 48.5175L34.352 55.5678L35.2298 57.2646L50.4057 41.8514V31.376L29.786 52.6134Z" fill="black"/>
<path fill-rule="evenodd" clip-rule="evenodd" d="M28.25 52.2108L31.7468 53.1036L35.1494 50.2662L38.0736 48.0479L36.5229 51.3633L34.5333 55.5274L35.9401 58.7629L32.0606 58.6897L29.1783 59.9999L29.4912 56.167L28.25 52.2108ZM30.4101 56.0643L30.2084 58.5348L31.8722 57.7785L34.5444 57.8289L33.536 55.5097L35.704 50.9721L31.973 54.098L29.6034 53.493L30.4101 56.0643Z" fill="black"/>
<path d="M18.8647 28.5934L23.7955 25.8657L20.9039 30.6266L24.194 31.1193L20.1078 33.8038L21.2176 35.582L18.6491 35.7029L18.0066 37.1897L15.8122 35.6476H13.3671L14.0025 33.4088L13 30.0616L14.4431 30.3182L15.1841 27.2972L16.0952 28.635L17.8634 25.2217L18.8647 28.5934ZM16.1895 30.2047L15.536 29.2452L15.0459 31.244L14.1474 31.0841L14.8417 33.4028L14.4333 34.8418H16.067L17.6597 35.9611L18.109 34.9218L19.8059 34.8418L19.0075 33.5626L21.989 31.6038L19.5863 31.244L21.5335 28.0379L18.3776 29.7837L17.6597 27.3664L16.1895 30.2047Z" fill="black"/>
<path d="M22.3409 48.2677L25.5163 48.4361L20.986 51.5113L22.8913 52.9856L19.7159 53.3648L19.4195 54.6285L17.3449 53.7439L15.0162 53.9123L15.4819 51.3428L13.7461 48.6468L15.355 48.731V45.698L16.9639 47.2988L18.9114 42.328L19.4195 45.3189L30.9356 36.7676L22.3409 48.2677ZM18.8452 46.749L18.6029 45.3237L17.266 48.7361L16.1608 47.6363V49.58L15.2755 49.5337L16.3315 51.1737L15.9943 53.0336L17.4814 52.9261L18.8538 53.5112L19.0603 52.6315L20.8421 52.4187L19.6142 51.4685L23.083 49.1138L20.7932 48.9924L26.99 40.7009L18.8452 46.749Z" fill="black"/>
</svg>
